<svg width="180" height="180" viewBox="0 0 180 180" fill="none" xmlns="http://www.w3.org/2000/svg">
<path fill-rule="evenodd" clip-rule="evenodd" d="M26.3602 26.3602C61.5072 -8.78682 118.492 -8.78665 153.64 26.3602C160.496 33.2167 166.015 40.9048 170.196 49.0993L144.246 119.431C141.195 118.297 137.118 118.147 132.917 119.257C125.208 121.295 120.005 126.8 121.296 131.553C122.587 136.305 129.884 138.505 137.593 136.468C144.111 134.744 148.836 130.543 149.359 126.413L174.375 58.6178C186.243 90.5877 179.331 127.948 153.64 153.64C118.492 188.787 61.5073 188.787 26.3602 153.64C-8.78666 118.493 -8.78678 61.5073 26.3602 26.3602ZM115.456 64.5451C101.398 50.4863 78.6039 50.4863 64.545 64.5451C50.4863 78.604 50.4862 101.398 64.545 115.457C78.6039 129.515 101.398 129.515 115.456 115.457C129.515 101.398 129.515 78.604 115.456 64.5451ZM37.8 45C30.8414 45.0002 25.2001 50.6414 25.2 57.6C25.2 64.5587 30.8414 70.1998 37.8 70.2C44.7588 70.2 50.4 64.5588 50.4 57.6C50.3999 50.6413 44.7587 45 37.8 45ZM142.2 45C135.241 45.0002 129.6 50.6414 129.6 57.6C129.6 64.5587 135.241 70.1998 142.2 70.2C149.159 70.2 154.8 64.5588 154.8 57.6C154.8 50.6413 149.158 45 142.2 45Z" fill="#FB8071"/>
<path d="M126 90C126 109.882 109.882 126 90.0002 126C70.1179 126 54.0002 109.882 54.0002 90C54.0002 70.1178 70.1179 54.0001 90.0002 54.0001C109.882 54.0001 126 70.1178 126 90Z" fill="#FDCDB7"/>
<path d="M86.4002 90C86.4002 98.947 80.759 106.2 73.8002 106.2C66.8414 106.2 61.2002 98.947 61.2002 90C61.2002 81.053 66.8414 73.8001 73.8002 73.8001C80.759 73.8001 86.4002 81.053 86.4002 90Z" fill="#FB8071"/>
<path d="M118.8 90C118.8 98.947 113.159 106.2 106.2 106.2C99.2413 106.2 93.6001 98.947 93.6001 90C93.6001 81.053 99.2413 73.8001 106.2 73.8001C113.159 73.8001 118.8 81.053 118.8 90Z" fill="#FB8071"/>
</svg>
